<!DOCTYPE svg PUBLIC "-//W3C//DTD SVG 1.1//EN" "http://www.w3.org/Graphics/SVG/1.1/DTD/svg11.dtd">
<svg version="1.1" xmlns="http://www.w3.org/2000/svg" xmlns:xlink="http://www.w3.org/1999/xlink" width="100%" height="100%" viewBox="-4 -2 108 144">
 <title>Some data flows and storage levels in the Git revision control system</title>
 <desc>Some data flows and storage levels in the Git revision control system, drawn by CMG Lee.</desc>
 <defs>
  <linearGradient id="gradient" x1="0%" y1="0%" x2="0%" y2="100%">
   <stop offset="0%" stop-color="#ffffff" stop-opacity="1"/>
   <stop offset="100%" stop-color="#000000" stop-opacity="0"/>
  </linearGradient>
  <path id="arrow" d="M -2 -5 L 0 0 L 2 -5" stroke="#000000" fill="none"/>

  <rect id="remote" x="0" y="0" width="100" height="20" rx="5" ry="5" stroke="#000000" stroke-width="0.5"/>
  <rect id="local" x="20" y="40" width="80" height="20" rx="5" ry="5" stroke="#000000" stroke-width="0.5"/>
  <rect id="index" x="40" y="80" width="60" height="20" rx="5" ry="5" stroke="#000000" stroke-width="0.5"/>
  <rect id="work" x="0" y="120" width="100" height="20" rx="5" ry="5" stroke="#000000" stroke-width="0.5"/>
 </defs>
 <g id="main" font-family="sans-serif" font-size="8" text-anchor="middle" stroke-linecap="round">
  <g stroke="#000000" fill="none">
   <path d="M 5 25 V 35 M 25 25 V 35 M 65 25 V 35" stroke-dasharray="0.1,1.5"/>
   <path d="M 5 20 V 25 M 5 35 V 120 M 5 40 Q 5 50 15 50 H 20 M 25 20 V 25 M 25 35 V 120 M 65 20 V 25 M 65 35 V 120"/>
  </g>

  <use xlink:href="#arrow" transform="translate(5,120)"/>
  <use xlink:href="#arrow" transform="translate(20,50) rotate(270)"/>
  <text x="7" y="70" dy="0.6ex" text-anchor="start">pull</text>
  <use xlink:href="#arrow" transform="translate(25,40)"/>
  <text x="26" y="108" dy="0.6ex" text-anchor="start"><tspan letter-spacing="-0.5">checkout</tspan><tspan x="30" dy="1em">HEAD</tspan></text>
  <use xlink:href="#arrow" transform="translate(25,120)"/>
  <text x="28" y="30" dy="0.6ex" text-anchor="start">fetch</text>
  <use xlink:href="#arrow" transform="translate(65,20) rotate(180)"/>
  <text x="68" y="30" dy="0.6ex" text-anchor="start">push</text>
  <use xlink:href="#arrow" transform="translate(65,60) rotate(180)"/>
  <text x="68" y="70" dy="0.6ex" text-anchor="start">commit</text>
  <use xlink:href="#arrow" transform="translate(65,100) rotate(180)"/>
  <text x="68" y="110" dy="0.6ex" text-anchor="start">add</text>

  <use xlink:href="#remote" fill="#66ccff"/>
  <use xlink:href="#remote" fill="url(#gradient)"/>
  <text x="50" y="10" dy="0.6ex">Remote repository</text>
  <use xlink:href="#local" fill="#66cc66"/>
  <use xlink:href="#local" fill="url(#gradient)"/>
  <text x="60" y="50" dy="0.6ex">Local repository</text>
  <use xlink:href="#index" fill="#ffcc66"/>
  <use xlink:href="#index" fill="url(#gradient)"/>
  <text x="70" y="90" dy="0.6ex">Index (cache)</text>
  <use xlink:href="#work" fill="#ff6666"/>
  <use xlink:href="#work" fill="url(#gradient)"/>
  <text x="50" y="130" dy="0.6ex">Working directory</text>
 </g>
</svg>
